<?xml version="1.0" encoding="UTF-8"?>
<svg id="_レイヤー_1" data-name="レイヤー_1" xmlns="http://www.w3.org/2000/svg" viewBox="0 0 572 168">
  <defs>
    <style>
      .cls-1 {
        fill: #005ea5;
      }

      .cls-2 {
        fill: #fdfdfe;
      }

      .cls-3 {
        font-size: 24px;
      }

      .cls-3, .cls-4, .cls-5 {
        fill: #fff;
        font-family: HiraKakuProN-W6-83pv-RKSJ-H, 'Hiragino Kaku Gothic ProN';
      }

      .cls-4 {
        font-size: 14px;
      }

      .cls-5 {
        font-size: 40px;
      }

      .cls-6 {
        fill: #015ea6;
      }

      .cls-7 {
        fill: #fefefe;
      }

      .cls-8 {
        letter-spacing: -.1em;
      }

      .cls-9 {
        letter-spacing: -.11em;
      }

      .cls-10 {
        letter-spacing: -.08em;
      }

      .cls-11 {
        letter-spacing: -.06em;
      }

      .cls-12 {
        letter-spacing: -.07em;
      }

      .cls-13 {
        letter-spacing: -.06em;
      }

      .cls-14 {
        letter-spacing: -.16em;
      }

      .cls-15 {
        letter-spacing: -.18em;
      }

      .cls-16 {
        letter-spacing: -.14em;
      }

      .cls-17 {
        letter-spacing: -.15em;
      }

      .cls-18 {
        letter-spacing: -.11em;
      }

      .cls-19 {
        letter-spacing: -.12em;
      }

      .cls-20 {
        letter-spacing: -.05em;
      }

      .cls-21 {
        letter-spacing: -.04em;
      }

      .cls-22 {
        letter-spacing: -.04em;
      }

      .cls-23 {
        fill: #fdfefe;
      }
    </style>
  </defs>
  <path class="cls-1" d="M.06,167.54C.06,112.79.08,58.03,0,3.28,0,.75.29,0,2.91,0,191.64.09,380.36.09,569.09,0c2.63,0,2.92.75,2.91,3.28-.08,54.75-.06,109.51-.06,164.26-1.26.73-2.63.37-3.94.37-188,.02-376,.02-564,0-1.31,0-2.68.36-3.94-.37Z"/>
  <text class="cls-5" transform="translate(143.98 109.74) scale(.82 1)"><tspan class="cls-20" x="0" y="0">K</tspan><tspan class="cls-11" x="29.2" y="0">-</tspan><tspan class="cls-19" x="43.24" y="0">フ</tspan><tspan class="cls-18" x="78.24" y="0">ァ</tspan><tspan class="cls-14" x="113.72" y="0">ク</tspan><tspan class="cls-17" x="147.36" y="0">ト</tspan><tspan class="cls-10" x="181.4" y="0">リ</tspan><tspan class="cls-13" x="218.16" y="0">ー</tspan><tspan class="cls-16" x="255.76" y="0">ソ</tspan><tspan class="cls-15" x="290.2" y="0">リ</tspan><tspan class="cls-12" x="323.16" y="0">ュ</tspan><tspan class="cls-21" x="360.4" y="0">ー</tspan><tspan class="cls-8" x="398.64" y="0">シ</tspan><tspan class="cls-9" x="434.64" y="0">ョ</tspan><tspan class="cls-22" x="470.28" y="0">ン</tspan></text>
  <text class="cls-3" transform="translate(143.44 59.75) scale(.82 1)"><tspan x="0" y="0">株式会社</tspan></text>
  <text class="cls-4" transform="translate(32.86 142.47) scale(.82 1)"><tspan x="0" y="0">Best Solution</tspan><tspan x="0" y="16.8">For Customers</tspan></text>
  <g>
    <path class="cls-7" d="M62.53,70.34c-.08-3.55,1.32-5.31,3.19-6.22,3.52-1.7,3.05-5.24,2.98-8.6-.03-1.74-1.5-2.04-2.41-2.81-4.62-3.9-4.78-4.66-1.92-10.68.2-.41.39-.82.59-1.24,3.29-6.94,3.49-7.02,9.38-3.71,3.13,1.76,6.87-.94,7.27-5.17.17-1.76-.23-3.64.62-5.25,2.44-4.6,6.26-1.95,9.46-2.58,1.9-.37,3.45.47,4.4,2.68.49,1.13.49,2.32.48,3.49-.03,3.08.58,5.36,3.26,6.72,1.47.75,2.53,1.31,3.96.24.99-.74,2.08-1.43,3.21-1.75,5.65-1.61,5.48,5.05,7.65,8.28,1.59,2.37,1.65,5.09-.63,7.21-.7.65-1.41,1.31-2.19,1.8-1.73,1.09-2.28,2.58-2.34,5.1-.07,2.96-2.04,4.48-.1,5.96,4.18,3.2,7.3,5.32,4.84,10.61-.15.31-.3.62-.45.93q-3.72,7.85-10.56,4.08c-1.99-1.1-6.03,1.7-6.41,4.44q-1.24,9.14-8.82,9.14c-5.43,0-5.91-.55-6.35-7.28-.35-5.36-3.93-7.88-7.82-5.51-5.01,3.06-5.72,2.81-8.52-3.22-1.1-2.36-2.6-4.52-2.77-6.64Z"/>
    <path class="cls-7" d="M58.33,72.76c-.46,1.77.27,3.07,1.59,4.26.92.83,1.77,1.96,2.34,3.17,1.59,3.3,2.66,6.81,6.44,7.83,2.04.55,2.21,4.76.96,9.08-.77,2.68-2.48,3.8-4.59,3.39-1.8-.35-2.9.21-3.96,1.94-.74,1.21-1.8,2.27-2.91,2.97-2.67,1.69-4.84,3.38-6.01,7.33-1.16,3.95-4.5,2.24-7.01,1.63-2.14-.52-3.64-2.23-3.37-5.02.26-2.69-.41-4.48-2.15-6.06-.91-.82-1.69-2.08-2.16-3.34-1.18-3.18-2.6-5.45-5.62-6.84-3.33-1.53-1.91-5.65-1.42-8.86.44-2.83,2.11-4.14,4.26-3.8,2.17.34,3.42-.66,4.68-2.59,1.35-2.08,3.26-3.47,5.33-4.28,1.4-.55,2.03-1.49,2.35-3.2.82-4.48,2.01-5.74,4.68-5.34,5.7.84,6.66,1.94,6.57,7.73Z"/>
    <path class="cls-23" d="M19.8,88.1c.4-8.96,3.59-18.75,10.67-26.37,1-1.07,2.16-3.34,3.61-1.32,1.59,2.22-.64,3.23-1.63,4.46-7.42,9.15-11.09,19.89-8.69,32.76,4.1,22.03,24.05,32.3,40.31,20.95.34-.24.67-.5.99-.76.96-.79,2.04-1.35,2.84.06.93,1.63-.1,2.74-1.13,3.46-1.95,1.36-3.91,2.79-6,3.73-19.86,8.9-40.91-8.93-40.95-36.97Z"/>
    <path class="cls-2" d="M89.62,10.32c12.87.37,23.19,6.9,31.08,19.23.24.38.46.77.69,1.16.61,1.06,1,2.24.02,3.17-.93.88-1.84.42-2.54-.68-.66-1.04-1.34-2.06-2.01-3.08-13.5-20.41-39.78-21.27-54.16-1.78-.26.36-.52.72-.78,1.07-.81,1.08-1.66,2.36-2.92.96-1.23-1.35-.38-2.53.44-3.66,4.85-6.69,10.74-11.44,17.74-14.08,4.05-1.53,8.18-2.41,12.45-2.3Z"/>
    <path class="cls-1" d="M70.29,39.2c1.31.75,2.78,1.43,4.13,2.39,1.72,1.23,3.26,1.58,4.71-.44.13-.18.3-.35.47-.42,4.21-1.51,5.79-5,5.32-10.18-.18-1.98.75-2.81,2.36-2.57.29.04.59,0,.88,0,5.42.19,5.13-1.44,5.35,6.27.07,2.46.61,4.17,2.67,4.81.09.03.21.05.27.13,3.44,4,7.01,3.68,10.67.51,1.06-.92,1.63-.46,2.31.79,3.48,6.39,3.53,6.4-1.71,10.86-1.27,1.08-2,2.18-1.53,4.14.19.79.37,1.74.18,2.47-1.32,5.03,1.17,7.44,4.27,9.41,1.8,1.14,2.16,2.55.89,4.52-.06.09-.1.2-.15.31-2.74,5.97-2.77,6.05-7.79,2.98-1.64-1.01-2.92-1.04-4.2.56-.2.25-.45.52-.72.61-4.21,1.52-5.8,5-5.33,10.18.16,1.8-.71,2.6-2.19,2.4-.29-.04-.59,0-.88,0-5.8-.18-5.25,1.32-5.54-6.42-.08-2.15-.54-3.72-2.38-4.32-.28-.09-.6-.21-.8-.44-3.36-3.88-6.8-3.69-10.36-.43-.67.61-1.42.93-1.99-.26-1.03-2.17-2.09-4.32-3.08-6.51-.44-.97-.23-1.81.58-2.42.83-.63,1.59-1.42,2.45-1.97,2.32-1.49,2.68-3.58,2.95-6.83.47-5.65-1.38-8.6-5.08-10.84-.83-.5-1.48-1.14-.77-2.51,1-1.91,1.86-3.92,2.8-5.88.24-.5.47-1.08,1.21-.91Z"/>
    <path class="cls-1" d="M36.94,84.45c1.57.47,2.76-.26,3.76-2.13,1.43-2.67,3.5-4.56,6.08-5.25,1.91-.51,2.9-1.8,3.13-4.05.24-2.43,1.08-3.45,3.29-2.96,2.16.48,2.12,2.01,1.81,3.87-.37,2.24.08,3.81,1.81,5.06,2.28,1.63,3.73,4.26,4.29,7.4.41,2.3,1.32,3.45,3.26,3.84,1.27.25,3.05.2,2.61,3.12-.36,2.44-1.08,3.63-3.22,3.1-2.03-.5-3.48.32-4.63,2.61-1.14,2.28-2.99,3.86-5.15,4.46-2.32.65-3.62,2.26-3.85,5.04-.21,2.64-1.51,2.45-3.12,2.28-1.83-.19-2.02-1.46-1.8-3.19.34-2.68-.07-4.68-2.3-6.21-2.07-1.42-3.39-4.08-3.85-6.94-.39-2.43-1.46-3.44-3.28-3.82-1.82-.38-2.83-1.12-2.45-3.97.42-3.12,1.95-2.3,3.6-2.25Z"/>
    <path class="cls-2" d="M89.19,70.65c-3.94.65-10.01-6.3-9.8-12.68.21-6.47,4.46-11.72,9.83-11.68,5.32.04,9.52,5.39,9.68,11.9.15,6.17-5.92,13.04-9.7,12.46Z"/>
    <path class="cls-6" d="M95.49,58.24c0,4.19-2.95,7.72-6.42,7.68-3.49-.04-6.29-3.55-6.27-7.85.02-4.34,2.78-7.6,6.4-7.58,3.56.03,6.29,3.39,6.29,7.75Z"/>
  </g>
</svg>